<svg width="1em" height="1em" xmlns="http://www.w3.org/2000/svg" viewBox="0 0 12 12">


<title>i-cart</title>
<path d="M10.4,10.4l-0.6-7C9.7,3.1,9.6,3,9.4,3H8.3V2.3c0-0.6-0.2-1.2-0.7-1.6C7.2,0.2,6.6,0,6,0C4.8,0,3.8,1,3.8,2.3V3
	H2.6C2.4,3,2.3,3.1,2.3,3.3l-0.6,7C1.5,11.2,2.1,11.9,3,12c0,0,0.1,0,0.1,0h5.8c0.8,0,1.5-0.7,1.5-1.5
	C10.4,10.5,10.4,10.4,10.4,10.4L10.4,10.4z M4.5,2.3c0-0.8,0.7-1.5,1.5-1.5c0.4,0,0.8,0.2,1.1,0.4s0.4,0.7,0.4,1.1V3h-3V2.3z
	 M9.4,11c-0.1,0.2-0.3,0.2-0.6,0.2H3.1c-0.4,0-0.7-0.3-0.7-0.8c0,0,0,0,0-0.1L3,3.8h0.8v1.1c0,0.2,0.2,0.4,0.4,0.4
	c0.2,0,0.4-0.2,0.4-0.4V3.8h3v1.1c0,0.2,0.2,0.4,0.4,0.4s0.4-0.2,0.4-0.4V3.8H9l0.6,6.7C9.7,10.6,9.6,10.9,9.4,11L9.4,11z"></path>
</svg>